<svg xmlns="http://www.w3.org/2000/svg" xmlns:xlink="http://www.w3.org/1999/xlink" width="500" zoomAndPan="magnify" viewBox="0 0 375 374.999991" height="500" preserveAspectRatio="xMidYMid meet" version="1.0"><defs><clipPath id="cc41e56799"><path d="M 5.4375 5.121094 L 370.191406 5.121094 L 370.191406 369.878906 L 5.4375 369.878906 Z M 5.4375 5.121094 " clip-rule="nonzero"/></clipPath><clipPath id="d5ab7411ae"><path d="M 187.816406 5.121094 C 87.089844 5.121094 5.4375 86.777344 5.4375 187.5 C 5.4375 288.222656 87.089844 369.878906 187.816406 369.878906 C 288.539062 369.878906 370.191406 288.222656 370.191406 187.5 C 370.191406 86.777344 288.539062 5.121094 187.816406 5.121094 Z M 187.816406 5.121094 " clip-rule="nonzero"/></clipPath><clipPath id="0c5089f378"><path d="M 15.644531 15.703125 L 359.238281 15.703125 L 359.238281 359.296875 L 15.644531 359.296875 Z M 15.644531 15.703125 " clip-rule="nonzero"/></clipPath><clipPath id="356619ca5b"><path d="M 187.441406 15.703125 C 92.558594 15.703125 15.644531 92.617188 15.644531 187.5 C 15.644531 282.382812 92.558594 359.296875 187.441406 359.296875 C 282.324219 359.296875 359.238281 282.382812 359.238281 187.5 C 359.238281 92.617188 282.324219 15.703125 187.441406 15.703125 Z M 187.441406 15.703125 " clip-rule="nonzero"/></clipPath><clipPath id="7fe10284f5"><path d="M 199.347656 154.667969 L 219.933594 154.667969 L 219.933594 175.257812 L 199.347656 175.257812 Z M 199.347656 154.667969 " clip-rule="nonzero"/></clipPath><clipPath id="e9427f6c26"><path d="M 209.640625 154.667969 C 203.957031 154.667969 199.347656 159.277344 199.347656 164.964844 C 199.347656 170.648438 203.957031 175.257812 209.640625 175.257812 C 215.324219 175.257812 219.933594 170.648438 219.933594 164.964844 C 219.933594 159.277344 215.324219 154.667969 209.640625 154.667969 Z M 209.640625 154.667969 " clip-rule="nonzero"/></clipPath><clipPath id="f8b69fc414"><path d="M 227.105469 154.667969 L 247.695312 154.667969 L 247.695312 175.257812 L 227.105469 175.257812 Z M 227.105469 154.667969 " clip-rule="nonzero"/></clipPath><clipPath id="ebdbc316ee"><path d="M 237.398438 154.667969 C 231.714844 154.667969 227.105469 159.277344 227.105469 164.964844 C 227.105469 170.648438 231.714844 175.257812 237.398438 175.257812 C 243.085938 175.257812 247.695312 170.648438 247.695312 164.964844 C 247.695312 159.277344 243.085938 154.667969 237.398438 154.667969 Z M 237.398438 154.667969 " clip-rule="nonzero"/></clipPath><clipPath id="7de67d35bd"><path d="M 261.742188 154.667969 L 282.328125 154.667969 L 282.328125 175.257812 L 261.742188 175.257812 Z M 261.742188 154.667969 " clip-rule="nonzero"/></clipPath><clipPath id="04fd6a9c82"><path d="M 272.035156 154.667969 C 266.351562 154.667969 261.742188 159.277344 261.742188 164.964844 C 261.742188 170.648438 266.351562 175.257812 272.035156 175.257812 C 277.71875 175.257812 282.328125 170.648438 282.328125 164.964844 C 282.328125 159.277344 277.71875 154.667969 272.035156 154.667969 Z M 272.035156 154.667969 " clip-rule="nonzero"/></clipPath><clipPath id="d45fd8d59e"><path d="M 295.113281 154.667969 L 315.699219 154.667969 L 315.699219 175.257812 L 295.113281 175.257812 Z M 295.113281 154.667969 " clip-rule="nonzero"/></clipPath><clipPath id="939905c056"><path d="M 305.40625 154.667969 C 299.71875 154.667969 295.113281 159.277344 295.113281 164.964844 C 295.113281 170.648438 299.71875 175.257812 305.40625 175.257812 C 311.089844 175.257812 315.699219 170.648438 315.699219 164.964844 C 315.699219 159.277344 311.089844 154.667969 305.40625 154.667969 Z M 305.40625 154.667969 " clip-rule="nonzero"/></clipPath><clipPath id="8777c3a6da"><path d="M 184.050781 58.671875 L 330.675781 58.671875 L 330.675781 139.460938 L 184.050781 139.460938 Z M 184.050781 58.671875 " clip-rule="nonzero"/></clipPath><clipPath id="f16ebf6123"><path d="M 141 146 L 172 146 L 172 178 L 141 178 Z M 141 146 " clip-rule="nonzero"/></clipPath><clipPath id="f1101dfa95"><path d="M 10.15625 140.636719 L 134.992188 15.800781 L 230.207031 111.015625 L 105.371094 235.851562 Z M 10.15625 140.636719 " clip-rule="nonzero"/></clipPath><clipPath id="3e7e817738"><path d="M 10.15625 140.636719 L 134.992188 15.800781 L 230.207031 111.015625 L 105.371094 235.851562 Z M 10.15625 140.636719 " clip-rule="nonzero"/></clipPath><clipPath id="5d41ce335c"><path d="M 104 110 L 168 110 L 168 173 L 104 173 Z M 104 110 " clip-rule="nonzero"/></clipPath><clipPath id="bb063c6f00"><path d="M 10.15625 140.636719 L 134.992188 15.800781 L 230.207031 111.015625 L 105.371094 235.851562 Z M 10.15625 140.636719 " clip-rule="nonzero"/></clipPath><clipPath id="d1e53b70e1"><path d="M 10.15625 140.636719 L 134.992188 15.800781 L 230.207031 111.015625 L 105.371094 235.851562 Z M 10.15625 140.636719 " clip-rule="nonzero"/></clipPath><clipPath id="d5886f7d5a"><path d="M 37 43 L 168 43 L 168 173 L 37 173 Z M 37 43 " clip-rule="nonzero"/></clipPath><clipPath id="1db0e4ed38"><path d="M 10.15625 140.636719 L 134.992188 15.800781 L 230.207031 111.015625 L 105.371094 235.851562 Z M 10.15625 140.636719 " clip-rule="nonzero"/></clipPath><clipPath id="202b3e24ae"><path d="M 10.15625 140.636719 L 134.992188 15.800781 L 230.207031 111.015625 L 105.371094 235.851562 Z M 10.15625 140.636719 " clip-rule="nonzero"/></clipPath><clipPath id="f6edfb5e92"><path d="M 72 77 L 168 77 L 168 173 L 72 173 Z M 72 77 " clip-rule="nonzero"/></clipPath><clipPath id="65dedeb2e7"><path d="M 10.15625 140.636719 L 134.992188 15.800781 L 230.207031 111.015625 L 105.371094 235.851562 Z M 10.15625 140.636719 " clip-rule="nonzero"/></clipPath><clipPath id="e7d64bdfe1"><path d="M 10.15625 140.636719 L 134.992188 15.800781 L 230.207031 111.015625 L 105.371094 235.851562 Z M 10.15625 140.636719 " clip-rule="nonzero"/></clipPath><clipPath id="8ffc1a7372"><path d="M 131 307 L 274 307 L 274 344.449219 L 131 344.449219 Z M 131 307 " clip-rule="nonzero"/></clipPath><clipPath id="a988c51f62"><path d="M 30 184.117188 L 347.148438 184.117188 L 347.148438 250 L 30 250 Z M 30 184.117188 " clip-rule="nonzero"/></clipPath><clipPath id="385895e886"><path d="M 29.960938 184.117188 L 347 184.117188 L 347 192 L 29.960938 192 Z M 29.960938 184.117188 " clip-rule="nonzero"/></clipPath><clipPath id="2302ba59d5"><path d="M 115.320312 182.464844 L 169.605469 182.464844 L 169.605469 190.832031 L 115.320312 190.832031 Z M 115.320312 182.464844 " clip-rule="nonzero"/></clipPath></defs><g clip-path="url(#cc41e56799)"><g clip-path="url(#d5ab7411ae)"><path fill="#004d94" d="M 5.4375 5.121094 L 370.191406 5.121094 L 370.191406 369.878906 L 5.4375 369.878906 Z M 5.4375 5.121094 " fill-opacity="1" fill-rule="nonzero"/></g></g><g clip-path="url(#0c5089f378)"><g clip-path="url(#356619ca5b)"><path fill="#ffffff" d="M 15.644531 15.703125 L 359.238281 15.703125 L 359.238281 359.296875 L 15.644531 359.296875 Z M 15.644531 15.703125 " fill-opacity="1" fill-rule="nonzero"/></g></g><g clip-path="url(#7fe10284f5)"><g clip-path="url(#e9427f6c26)"><path fill="#36a5dd" d="M 199.347656 154.667969 L 219.933594 154.667969 L 219.933594 175.257812 L 199.347656 175.257812 Z M 199.347656 154.667969 " fill-opacity="1" fill-rule="nonzero"/></g></g><g clip-path="url(#f8b69fc414)"><g clip-path="url(#ebdbc316ee)"><path fill="#36a5dd" d="M 227.105469 154.667969 L 247.695312 154.667969 L 247.695312 175.257812 L 227.105469 175.257812 Z M 227.105469 154.667969 " fill-opacity="1" fill-rule="nonzero"/></g></g><g clip-path="url(#7de67d35bd)"><g clip-path="url(#04fd6a9c82)"><path fill="#36a5dd" d="M 261.742188 154.667969 L 282.328125 154.667969 L 282.328125 175.257812 L 261.742188 175.257812 Z M 261.742188 154.667969 " fill-opacity="1" fill-rule="nonzero"/></g></g><g clip-path="url(#d45fd8d59e)"><g clip-path="url(#939905c056)"><path fill="#36a5dd" d="M 295.113281 154.667969 L 315.699219 154.667969 L 315.699219 175.257812 L 295.113281 175.257812 Z M 295.113281 154.667969 " fill-opacity="1" fill-rule="nonzero"/></g></g><g clip-path="url(#8777c3a6da)"><path fill="#51ade5" d="M 310.578125 96.921875 C 309.21875 86.464844 300.433594 78.363281 289.683594 78.363281 C 288.957031 78.363281 288.273438 78.503906 287.566406 78.578125 C 283.078125 66.9375 271.878906 58.671875 258.734375 58.671875 C 244.890625 58.671875 233.175781 67.832031 229.222656 80.460938 C 226.476562 79.152344 223.441406 78.363281 220.203125 78.363281 C 209.152344 78.363281 200.183594 86.921875 199.21875 97.800781 C 190.507812 100.445312 184.117188 108.496094 184.117188 118.132812 C 184.117188 129.910156 193.597656 139.460938 205.292969 139.460938 L 309.4375 139.460938 C 321.128906 139.460938 330.609375 129.910156 330.609375 118.132812 C 330.609375 106.75 321.730469 97.53125 310.578125 96.921875 " fill-opacity="1" fill-rule="nonzero"/></g><g clip-path="url(#f16ebf6123)"><g clip-path="url(#f1101dfa95)"><g clip-path="url(#3e7e817738)"><path fill="#004d94" d="M 145.648438 151.195312 C 139.761719 157.085938 139.761719 166.742188 145.648438 172.632812 C 151.539062 178.519531 161.195312 178.519531 167.085938 172.632812 C 172.972656 166.742188 172.972656 157.085938 167.085938 151.195312 C 161.097656 145.210938 151.539062 145.308594 145.648438 151.195312 Z M 145.648438 151.195312 " fill-opacity="1" fill-rule="nonzero"/></g></g></g><g clip-path="url(#5d41ce335c)"><g clip-path="url(#bb063c6f00)"><g clip-path="url(#d1e53b70e1)"><path fill="#004d94" d="M 120.257812 125.804688 C 110.410156 135.652344 105 148.78125 104.90625 162.589844 C 104.90625 168.191406 109.441406 172.726562 115.042969 172.726562 C 117.746094 172.726562 120.351562 171.664062 122.285156 169.734375 C 124.214844 167.804688 125.277344 165.195312 125.277344 162.492188 C 125.277344 153.996094 128.558594 146.078125 134.546875 140.09375 C 140.53125 134.105469 148.546875 130.726562 157.042969 130.726562 C 159.746094 130.726562 162.351562 129.667969 164.285156 127.734375 C 166.214844 125.804688 167.277344 123.195312 167.277344 120.492188 C 167.277344 114.894531 162.738281 110.355469 157.140625 110.355469 C 143.234375 110.550781 130.105469 115.957031 120.257812 125.804688 Z M 120.257812 125.804688 " fill-opacity="1" fill-rule="nonzero"/></g></g></g><g clip-path="url(#d5886f7d5a)"><g clip-path="url(#1db0e4ed38)"><g clip-path="url(#202b3e24ae)"><path fill="#004d94" d="M 157.332031 43.542969 C 125.46875 43.542969 95.445312 55.996094 72.945312 78.492188 C 50.449219 100.992188 37.898438 130.921875 37.898438 162.78125 C 37.898438 168.382812 42.4375 172.921875 48.035156 172.921875 C 50.742188 172.921875 53.347656 171.859375 55.277344 169.925781 C 57.210938 167.996094 58.269531 165.390625 58.269531 162.6875 C 58.269531 136.425781 68.601562 111.609375 87.332031 92.878906 C 106.0625 74.148438 130.878906 63.820312 157.332031 63.820312 C 160.035156 63.820312 162.644531 62.757812 164.574219 60.824219 C 166.503906 58.894531 167.566406 56.289062 167.566406 53.585938 C 167.46875 48.082031 162.933594 43.542969 157.332031 43.542969 Z M 157.332031 43.542969 " fill-opacity="1" fill-rule="nonzero"/></g></g></g><g clip-path="url(#f6edfb5e92)"><g clip-path="url(#65dedeb2e7)"><g clip-path="url(#e7d64bdfe1)"><path fill="#004d94" d="M 97.179688 102.726562 C 81.152344 118.753906 72.269531 139.996094 72.175781 162.6875 C 72.175781 165.390625 73.238281 167.996094 75.167969 169.925781 C 77.097656 171.859375 79.707031 172.921875 82.410156 172.921875 C 85.113281 172.921875 87.71875 171.859375 89.648438 169.925781 C 91.582031 167.996094 92.644531 165.390625 92.644531 162.6875 C 92.644531 145.5 99.402344 129.28125 111.566406 117.113281 C 123.734375 104.949219 139.953125 98.191406 157.140625 98.191406 C 159.84375 98.191406 162.449219 97.128906 164.378906 95.199219 C 166.3125 93.265625 167.375 90.660156 167.375 87.957031 C 167.375 85.253906 166.3125 82.644531 164.378906 80.714844 C 162.449219 78.785156 159.84375 77.722656 157.140625 77.722656 C 134.546875 77.914062 113.207031 86.699219 97.179688 102.726562 Z M 97.179688 102.726562 " fill-opacity="1" fill-rule="nonzero"/></g></g></g><g clip-path="url(#8ffc1a7372)"><path fill="#21469c" d="M 273.65625 319.890625 C 249.0625 335.542969 219.871094 344.617188 188.5625 344.617188 C 168.511719 344.617188 149.324219 340.890625 131.660156 334.113281 C 133.574219 334.324219 135.546875 334.425781 137.578125 334.425781 C 146.285156 334.425781 156.238281 332.503906 168.894531 328.382812 C 173.136719 327.03125 177.273438 325.539062 180.761719 324.257812 C 183.527344 323.238281 186.316406 322.191406 189.089844 321.15625 L 190.789062 320.515625 C 207.5 314.238281 221.351562 309.339844 234.910156 308.046875 C 237.078125 307.84375 239.207031 307.742188 241.226562 307.742188 C 251.652344 307.742188 260.5 310.410156 268.300781 315.890625 L 268.921875 316.296875 C 270.449219 317.609375 272.027344 318.8125 273.65625 319.890625 Z M 273.65625 319.890625 " fill-opacity="1" fill-rule="evenodd"/></g><path fill="#21469c" d="M 329.347656 259.191406 C 320.53125 276.105469 308.75 291.230469 294.707031 303.890625 C 285.25 303.289062 277.082031 300.3125 269.890625 294.910156 C 261.875 288.117188 252.5 284.8125 241.199219 284.8125 C 239.253906 284.8125 237.210938 284.910156 235.136719 285.113281 C 221.855469 286.378906 208.171875 291.21875 191.664062 297.421875 L 189.777344 298.125 C 185.109375 299.886719 180.289062 301.695312 175.570312 303.339844 C 171.398438 304.816406 167.667969 306.023438 164.160156 307.050781 C 153.722656 310.109375 145.25 311.550781 137.492188 311.550781 C 126.507812 311.550781 117.191406 308.589844 109.027344 302.5 L 108.957031 302.4375 C 100.949219 295.644531 91.5625 292.339844 80.269531 292.339844 C 78.316406 292.339844 76.285156 292.4375 74.199219 292.636719 C 73.273438 292.730469 72.335938 292.832031 71.414062 292.949219 C 62.265625 282.953125 54.398438 271.785156 48.042969 259.691406 L 48.042969 259.683594 C 56.6875 256.855469 65.523438 254.539062 73.976562 253.746094 C 76.164062 253.535156 78.296875 253.429688 80.34375 253.429688 C 90.734375 253.429688 99.578125 256.09375 107.363281 261.585938 L 107.996094 261.984375 C 116.222656 269.132812 125.917969 272.601562 137.582031 272.601562 C 143.535156 272.601562 150.042969 271.71875 157.476562 269.875 C 161.015625 269 164.65625 267.953125 168.613281 266.660156 C 175.222656 264.527344 182.027344 261.984375 188.597656 259.511719 L 190.792969 258.675781 C 204.644531 253.476562 220.347656 247.585938 234.917969 246.21875 C 237.089844 246.015625 239.230469 245.902344 241.273438 245.902344 C 251.679688 245.902344 260.519531 248.578125 268.296875 254.058594 L 268.96875 254.496094 C 277.195312 261.613281 286.867188 265.070312 298.523438 265.070312 C 304.472656 265.070312 310.96875 264.175781 318.417969 262.34375 C 321.851562 261.488281 325.535156 260.429688 329.347656 259.191406 Z M 329.347656 259.191406 " fill-opacity="1" fill-rule="evenodd"/><g clip-path="url(#a988c51f62)"><path fill="#0094d9" d="M 347.148438 191.035156 C 346.6875 205.46875 344.308594 219.417969 340.25 232.632812 C 336.191406 234.105469 332.136719 235.511719 328.136719 236.761719 C 324.136719 238.011719 320.519531 239.007812 317.089844 239.804688 C 310.1875 241.398438 304.082031 242.171875 298.417969 242.171875 C 287.367188 242.179688 278.007812 239.179688 269.8125 233.007812 L 269.730469 232.953125 C 261.753906 226.230469 252.417969 222.96875 241.203125 222.96875 C 239.246094 222.96875 237.21875 223.070312 235.144531 223.273438 C 220.871094 224.625 205.351562 230.445312 191.671875 235.582031 L 189.585938 236.351562 C 182.226562 239.117188 174.59375 241.976562 167.199219 244.289062 C 163.222656 245.527344 159.609375 246.527344 156.15625 247.328125 C 149.257812 248.921875 143.15625 249.707031 137.492188 249.707031 C 126.4375 249.707031 117.070312 246.707031 108.964844 240.605469 C 100.949219 233.800781 91.5625 230.496094 80.269531 230.496094 C 78.316406 230.496094 76.285156 230.597656 74.199219 230.789062 C 62.84375 231.871094 50.699219 235.777344 39.320312 239.917969 C 35.179688 228.496094 32.324219 216.449219 30.917969 203.972656 C 32.457031 203.394531 33.992188 202.820312 35.515625 202.253906 C 50.179688 196.84375 62.324219 193.007812 73.96875 191.898438 C 75.730469 191.726562 77.53125 191.636719 79.328125 191.601562 L 80.296875 191.59375 C 90.71875 191.59375 99.578125 194.257812 107.359375 199.738281 L 107.960938 200.128906 C 108.554688 200.632812 109.183594 201.144531 109.875 201.695312 L 110.105469 201.878906 C 110.492188 202.179688 110.882812 202.453125 111.246094 202.726562 L 111.671875 203.03125 C 112.039062 203.28125 112.40625 203.535156 112.769531 203.773438 L 113.25 204.078125 C 113.613281 204.308594 113.984375 204.535156 114.347656 204.757812 L 114.808594 205.023438 C 115.183594 205.234375 115.570312 205.457031 116.039062 205.714844 C 116.914062 206.171875 117.796875 206.597656 118.695312 207.007812 L 119.046875 207.167969 C 119.34375 207.289062 119.640625 207.414062 119.941406 207.523438 L 120.730469 207.835938 C 121.066406 207.96875 121.402344 208.089844 121.734375 208.203125 L 122.425781 208.449219 C 122.746094 208.558594 123.085938 208.664062 123.417969 208.761719 L 123.894531 208.90625 C 123.894531 208.90625 124.789062 209.160156 125.117188 209.25 C 125.117188 209.25 126.59375 209.605469 126.855469 209.65625 L 127.496094 209.789062 C 128.15625 209.921875 128.828125 210.046875 129.507812 210.15625 L 130.199219 210.253906 C 130.453125 210.296875 131.988281 210.476562 131.988281 210.476562 L 132.972656 210.566406 L 133.773438 210.628906 L 134.769531 210.679688 C 134.769531 210.679688 136.234375 210.742188 136.570312 210.742188 L 138.046875 210.75 L 139.230469 210.730469 C 139.828125 210.714844 140.4375 210.691406 141.039062 210.652344 L 141.933594 210.601562 L 143.808594 210.445312 L 145.710938 210.230469 L 146.597656 210.121094 L 148.472656 209.855469 L 150.332031 209.554688 C 151.644531 209.320312 152.96875 209.054688 154.238281 208.78125 L 154.398438 208.738281 C 155.050781 208.597656 155.699219 208.457031 156.417969 208.28125 C 157.367188 208.058594 158.324219 207.820312 159.289062 207.570312 L 160.835938 207.144531 C 164.253906 206.207031 167.886719 205.097656 171.617188 203.828125 C 172.199219 203.625 175.238281 202.570312 175.238281 202.570312 C 179.753906 200.984375 184.359375 199.253906 188.816406 197.585938 L 190.929688 196.789062 C 192.773438 196.097656 194.609375 195.40625 196.441406 194.734375 C 211.109375 189.316406 223.265625 185.480469 234.90625 184.371094 C 236.660156 184.210938 238.457031 184.109375 240.257812 184.089844 L 241.222656 184.078125 C 251.65625 184.078125 260.507812 186.746094 268.296875 192.226562 L 268.933594 192.632812 C 269.503906 193.132812 270.113281 193.628906 270.777344 194.140625 L 271.042969 194.351562 C 271.421875 194.640625 271.804688 194.925781 272.191406 195.195312 L 272.609375 195.496094 C 272.976562 195.753906 273.34375 195.996094 273.707031 196.242188 L 274.175781 196.542969 C 274.539062 196.777344 274.910156 197.003906 275.273438 197.214844 L 275.734375 197.480469 C 276.121094 197.703125 276.496094 197.925781 276.964844 198.171875 C 277.839844 198.640625 278.726562 199.066406 279.628906 199.460938 L 279.976562 199.625 C 280.332031 199.777344 280.675781 199.917969 281.03125 200.050781 L 281.660156 200.308594 C 281.996094 200.441406 282.324219 200.554688 282.667969 200.671875 L 283.359375 200.917969 C 283.6875 201.019531 284.023438 201.132812 284.34375 201.230469 L 285.066406 201.433594 C 285.390625 201.535156 285.71875 201.628906 286.050781 201.710938 L 286.78125 201.894531 C 286.78125 201.894531 287.515625 202.070312 287.769531 202.125 L 288.429688 202.257812 C 289.09375 202.390625 289.761719 202.515625 290.433594 202.613281 L 291.132812 202.726562 L 292.914062 202.941406 C 293.242188 202.984375 293.578125 203 293.90625 203.035156 L 294.699219 203.097656 C 295.023438 203.113281 295.359375 203.132812 295.683594 203.15625 L 296.507812 203.1875 L 297.492188 203.214844 L 298.917969 203.222656 L 300.148438 203.195312 C 300.757812 203.1875 301.355469 203.15625 301.964844 203.125 L 302.851562 203.074219 L 304.726562 202.910156 L 306.636719 202.707031 L 307.515625 202.597656 L 309.386719 202.335938 C 309.824219 202.261719 311.25 202.023438 311.25 202.023438 C 312.570312 201.800781 313.894531 201.535156 315.214844 201.234375 L 315.316406 201.214844 C 315.976562 201.074219 316.625 200.921875 317.226562 200.78125 L 317.335938 200.761719 C 318.292969 200.53125 319.25 200.292969 320.207031 200.042969 L 321.753906 199.625 C 325.171875 198.6875 328.804688 197.570312 332.535156 196.296875 C 333.117188 196.105469 336.164062 195.046875 336.164062 195.046875 C 339.816406 193.761719 343.515625 192.386719 347.148438 191.035156 Z M 347.148438 191.035156 " fill-opacity="1" fill-rule="evenodd"/></g><g clip-path="url(#385895e886)"><path fill="#0094d9" d="M 346.28125 168.589844 C 345.640625 168.835938 345 169.066406 344.359375 169.3125 L 341.855469 170.21875 C 340.21875 170.820312 338.578125 171.414062 336.949219 171.988281 L 336.046875 172.300781 C 334.480469 172.851562 332.914062 173.390625 331.34375 173.910156 L 330.246094 174.257812 C 328.527344 174.816406 326.796875 175.363281 325.082031 175.859375 L 323.027344 176.453125 C 320.546875 177.144531 318.113281 177.753906 315.855469 178.25 C 315.855469 178.25 314.589844 178.527344 314.054688 178.640625 C 314.054688 178.640625 312.792969 178.886719 312.285156 178.984375 C 312.285156 178.984375 310.992188 179.207031 310.488281 179.289062 L 308.503906 179.589844 C 308.503906 179.589844 307.28125 179.765625 306.734375 179.828125 L 306.863281 183.53125 L 306.589844 179.847656 C 305.992188 179.917969 305.402344 179.980469 304.792969 180.042969 C 304.792969 180.042969 303.550781 180.140625 303.0625 180.183594 L 301.320312 180.28125 L 299.601562 180.335938 L 298.046875 180.34375 L 296.175781 180.300781 L 294.484375 180.210938 L 292.800781 180.070312 L 292.066406 179.988281 L 291.132812 179.875 L 290.21875 179.742188 L 289.476562 179.621094 L 288.5625 179.457031 L 287.835938 179.316406 C 287.53125 179.253906 286.195312 178.949219 286.195312 178.949219 L 285.292969 178.726562 C 285.292969 178.726562 283.980469 178.359375 283.683594 178.265625 L 282.949219 178.035156 L 282.074219 177.75 C 282.074219 177.75 280.78125 177.28125 280.488281 177.15625 C 280.488281 177.15625 279.203125 176.636719 278.929688 176.519531 L 277.363281 175.804688 C 277.117188 175.679688 275.8125 175.019531 275.8125 175.019531 L 274.300781 174.167969 L 272.769531 173.242188 C 272.539062 173.089844 271.277344 172.257812 271.277344 172.257812 C 270.792969 171.914062 270.292969 171.558594 269.886719 171.25 C 261.882812 164.445312 252.507812 161.140625 241.21875 161.140625 C 239.261719 161.140625 237.21875 161.242188 235.132812 161.445312 C 228.890625 162.039062 221.902344 163.519531 213.753906 166 L 212.921875 166.265625 C 211.601562 166.671875 210.265625 167.097656 208.925781 167.546875 L 207.4375 168.042969 C 206.191406 168.460938 204.929688 168.902344 203.679688 169.347656 L 201.125 170.25 L 199.121094 170.96875 C 196.640625 171.882812 194.160156 172.800781 191.65625 173.734375 L 189.96875 174.375 C 187.78125 175.199219 185.605469 176.011719 183.417969 176.828125 L 180.90625 177.742188 C 179.277344 178.335938 177.644531 178.929688 176.023438 179.5 L 175.121094 179.820312 C 173.542969 180.378906 171.976562 180.902344 170.417969 181.421875 L 169.320312 181.785156 C 167.59375 182.34375 165.867188 182.882812 164.15625 183.378906 C 164.15625 183.378906 162.625 183.828125 162.101562 183.96875 C 159.609375 184.671875 157.175781 185.28125 154.890625 185.777344 L 155.136719 189.472656 L 154.78125 185.8125 C 154.234375 185.933594 153.675781 186.042969 153.125 186.15625 C 153.125 186.15625 151.871094 186.414062 151.355469 186.503906 C 151.355469 186.503906 150.0625 186.734375 149.554688 186.816406 L 147.449219 187.140625 C 146.898438 187.214844 146.351562 187.285156 145.800781 187.355469 L 145.933594 191.058594 L 145.660156 187.363281 C 145.066406 187.4375 144.472656 187.507812 143.871094 187.558594 C 143.871094 187.558594 142.628906 187.671875 142.140625 187.699219 L 140.390625 187.800781 L 138.679688 187.863281 L 137.203125 187.871094 L 135.25 187.84375 L 133.558594 187.75 C 133.246094 187.730469 131.875 187.597656 131.875 187.597656 C 131.5625 187.5625 131.253906 187.535156 130.949219 187.503906 L 129.277344 187.269531 L 128.535156 187.160156 C 128.238281 187.109375 127.933594 187.046875 127.621094 186.996094 L 126.886719 186.851562 L 125.984375 186.65625 L 125.25 186.488281 C 124.953125 186.410156 124.660156 186.335938 124.355469 186.257812 L 123.632812 186.0625 C 123.335938 185.96875 123.035156 185.886719 122.746094 185.808594 L 121.140625 185.277344 C 121.140625 185.277344 119.847656 184.808594 119.554688 184.699219 L 117.980469 184.046875 C 117.757812 183.945312 116.695312 183.453125 116.429688 183.335938 L 114.882812 182.550781 L 113.359375 181.699219 L 111.84375 180.785156 C 111.597656 180.617188 111.347656 180.457031 111.101562 180.289062 L 110.347656 179.789062 C 109.898438 179.472656 109.453125 179.160156 109.015625 178.832031 L 108.957031 178.773438 C 100.949219 171.980469 91.5625 168.667969 80.269531 168.667969 C 78.320312 168.667969 76.277344 168.773438 74.1875 168.96875 C 67.945312 169.558594 60.957031 171.050781 52.816406 173.523438 L 51.984375 173.789062 C 50.65625 174.203125 49.320312 174.628906 47.988281 175.070312 L 46.492188 175.566406 C 45.242188 175.992188 43.992188 176.417969 42.730469 176.871094 L 40.148438 177.792969 L 38.183594 178.503906 C 35.703125 179.40625 33.214844 180.335938 30.71875 181.265625 L 29.960938 181.554688 C 30.351562 167.144531 32.664062 153.207031 36.65625 140.007812 L 36.65625 140 C 48.726562 135.5625 61.757812 131.222656 73.96875 130.074219 C 76.15625 129.859375 78.292969 129.753906 80.335938 129.753906 C 90.730469 129.753906 99.574219 132.421875 107.359375 137.914062 L 107.988281 138.320312 C 116.21875 145.457031 125.914062 148.929688 137.578125 148.929688 C 143.527344 148.929688 150.039062 148.042969 157.46875 146.203125 C 161.011719 145.324219 164.652344 144.28125 168.609375 142.996094 C 175.191406 140.871094 181.964844 138.328125 188.503906 135.875 L 190.789062 135.011719 C 204.640625 129.8125 220.34375 123.921875 234.910156 122.539062 C 237.085938 122.335938 239.222656 122.238281 241.269531 122.238281 C 251.675781 122.238281 260.511719 124.902344 268.292969 130.394531 L 268.964844 130.8125 C 277.183594 137.941406 286.863281 141.394531 298.519531 141.394531 C 304.460938 141.394531 310.964844 140.5 318.410156 138.667969 C 321.929688 137.792969 325.582031 136.746094 329.535156 135.457031 C 332.34375 134.550781 335.183594 133.574219 338.019531 132.558594 C 342.117188 144.015625 344.933594 156.078125 346.28125 168.589844 Z M 346.28125 168.589844 " fill-opacity="1" fill-rule="evenodd"/></g><g clip-path="url(#2302ba59d5)"><path fill="#ffffff" d="M 115.320312 182.464844 L 169.609375 182.464844 L 169.609375 190.832031 L 115.320312 190.832031 Z M 115.320312 182.464844 " fill-opacity="1" fill-rule="nonzero"/></g></svg>